<svg version="1.1" id="Layer_1" focusable="false" xmlns="http://www.w3.org/2000/svg" xmlns:xlink="http://www.w3.org/1999/xlink" x="0px" y="0px" width="1000px" height="1000px" viewBox="0 0 1000 1000" enable-background="new 0 0 1000 1000" xml:space="preserve">
	<linearGradient id="fill" gradientUnits="userSpaceOnUse" x1="-280" y1="0" x2="70" y2="0">
		<stop offset="0.25" style="stop-color:#4069B2"/>
		<stop offset="0.75" style="stop-color:#73A7F4"/>
	</linearGradient>
	<path fill="url(#fill)" d="M981.371,625.174c-20.485-18.576-52.43-17.361-73.958,0L746.996,753.473c-19.691,15.797-44.199,24.375-69.444,24.305
	H472.223c-15.342,0-27.778-12.437-27.778-27.777s12.437-27.777,27.778-27.777h135.92c27.604,0,53.315-18.924,57.726-46.181
	c0.544-3.131,0.811-6.303,0.799-9.479c-0.058-30.642-24.914-55.451-55.556-55.451H333.333
	c-46.847,0.012-92.266,16.127-128.646,45.643l-80.729,65.469H27.778C12.437,722.223,0,734.659,0,750v166.667
	c0,15.341,12.437,27.777,27.778,27.777H647.17c25.237,0.02,49.729-8.552,69.444-24.306l262.553-210.069
	c23.961-19.164,27.849-54.125,8.685-78.086c-1.958-2.448-4.12-4.727-6.463-6.81H981.371z M499.127,498.947l-59.283-84.043
	c-6.51-9.296-24.006-32.138-52.481-68.524c-28.481-36.382-47.252-65.092-56.319-86.135c-9.066-21.038-13.6-42.136-13.6-63.293
	c0-19.992,3.541-37.368,10.636-52.135c7.089-14.761,17.202-25.745,30.339-32.954c13.132-7.203,26.678-10.811,40.627-10.811
	c19.756,0,37.662,6.337,53.703,19.006c16.041,12.674,26.502,29.118,31.385,49.345c2.32,9.301,5.111,15.692,8.369,19.18
	c1.623,1.863,3.717,2.789,6.277,2.789c3.486,0,6.043-0.926,7.672-2.789c3.486-3.717,6.506-10.113,9.066-19.18
	c5.809-21.621,16.215-38.36,31.211-50.217c14.994-11.856,32.834-17.785,53.529-17.785c24.176,0,43.939,8.489,59.283,25.457
	c15.344,16.974,23.016,40.572,23.016,70.791c0,20.46-4.709,41.618-14.123,63.468c-9.416,21.855-28.422,50.799-57.018,86.832
	c-28.596,36.038-46.15,58.586-52.656,67.652L499.127,498.947z"/>
</svg>
